ground reactions
version=1
nRows=44
nColumns=19
inDegrees=no
endheader
time	ground_force_l_vx	ground_force_l_vy	ground_force_l_vz	ground_force_l_px	ground_force_l_py	ground_force_l_pz	ground_torque_l_x	ground_torque_l_y	ground_torque_l_z	ground_force_r_vx	ground_force_r_vy	ground_force_r_vz	ground_force_r_px	ground_force_r_py	ground_force_r_pz	ground_torque_r_x	ground_torque_r_y	ground_torque_r_z
0.033333	-12.028470	184.741864	12.243948	0.796453	0.000000	-0.562621	0.000000	-0.023120	0.000000	0.000000	-0.000000	0.000000	-0.000000	-0.000000	0.000000	0.000000	-0.000000	0.000000
0.034375	-13.452664	206.920762	13.715843	0.795909	0.000000	-0.562217	0.000000	-0.035721	0.000000	0.000000	-0.000000	0.000000	-0.000000	-0.000000	0.000000	0.000000	-0.000000	0.000000
0.035417	-14.893532	229.493656	15.214710	0.795375	0.000000	-0.561821	0.000000	-0.052787	0.000000	0.000000	-0.000000	0.000000	-0.000000	-0.000000	0.000000	0.000000	-0.000000	0.000000
0.036458	-16.315022	251.936474	16.705899	0.794851	0.000000	-0.561440	0.000000	-0.075110	0.000000	0.000000	-0.000000	0.000000	-0.000000	-0.000000	0.000000	0.000000	-0.000000	0.000000
0.037500	-17.690232	273.858829	18.163472	0.794334	0.000000	-0.561080	0.000000	-0.103185	0.000000	0.000000	-0.000000	0.000000	-0.000000	-0.000000	0.000000	0.000000	-0.000000	0.000000
0.038542	-18.999468	294.975029	19.568302	0.793825	0.000000	-0.560746	0.000000	-0.137250	0.000000	0.000000	-0.000000	0.000000	-0.000000	-0.000000	0.000000	0.000000	-0.000000	0.000000
0.039583	-20.228751	315.082008	20.906626	0.793319	0.000000	-0.560443	0.000000	-0.177314	0.000000	0.000000	-0.000000	0.000000	-0.000000	-0.000000	0.000000	0.000000	-0.000000	0.000000
0.040625	-21.368665	334.042224	22.168931	0.792815	0.000000	-0.560173	0.000000	-0.223195	0.000000	0.000000	-0.000000	0.000000	-0.000000	-0.000000	0.000000	0.000000	-0.000000	0.000000
0.041667	-22.413443	351.770169	23.349080	0.792310	0.000000	-0.559938	0.000000	-0.274549	0.000000	0.000000	-0.000000	0.000000	-0.000000	-0.000000	0.000000	0.000000	-0.000000	0.000000
0.042708	-23.360230	368.221558	24.443618	0.791799	0.000000	-0.559736	0.000000	-0.330900	0.000000	0.000000	-0.000000	0.000000	-0.000000	-0.000000	0.000000	0.000000	-0.000000	0.000000
0.043750	-24.208475	383.384549	25.451201	0.791280	0.000000	-0.559568	0.000000	-0.391673	0.000000	0.000000	-0.000000	0.000000	0.000000	-0.000000	0.000000	0.000000	-0.000000	0.000000
0.044792	-24.959443	397.272556	26.372147	0.790751	0.000000	-0.559432	0.000000	-0.456216	0.000000	0.000000	-0.000000	0.000000	0.000000	0.000000	-0.000000	0.000000	-0.000000	0.000000
0.045833	-25.615791	409.918323	27.208054	0.790208	0.000000	-0.559324	0.000000	-0.523833	0.000000	0.000000	-0.000000	0.000000	0.000000	0.000000	-0.000000	0.000000	-0.000000	0.000000
0.046875	-26.181233	421.369031	27.961492	0.789649	0.000000	-0.559242	0.000000	-0.593801	0.000000	0.000000	-0.000000	0.000000	0.000000	0.000000	-0.000000	0.000000	-0.000000	0.000000
0.047917	-26.660248	431.682258	28.635749	0.789072	0.000000	-0.559183	0.000000	-0.665398	0.000000	0.000000	-0.000000	0.000000	0.000000	0.000000	-0.000000	0.000000	-0.000000	0.000000
0.048958	-27.057842	440.922664	29.234619	0.788476	0.000000	-0.559144	0.000000	-0.737914	0.000000	0.000000	-0.000000	0.000000	0.000000	0.000000	-0.000000	0.000000	-0.000000	0.000000
0.050000	-27.379353	449.159283	29.762233	0.787859	0.000000	-0.559120	0.000000	-0.810669	0.000000	0.000000	-0.000000	0.000000	0.000000	0.000000	-0.000000	0.000000	-0.000000	0.000000
0.051042	-27.630291	456.463336	30.222922	0.787220	0.000000	-0.559109	0.000000	-0.883028	0.000000	0.000000	-0.000000	0.000000	0.000000	0.000000	-0.000000	0.000000	-0.000000	0.000000
0.052083	-27.816205	462.906490	30.621104	0.786558	0.000000	-0.559109	0.000000	-0.954404	0.000000	0.000000	-0.000000	0.000000	0.000000	0.000000	-0.000000	0.000000	-0.000000	0.000000
0.053125	-27.942582	468.559492	30.961199	0.785874	0.000000	-0.559116	0.000000	-1.024274	0.000000	0.000000	-0.000000	0.000000	0.000000	0.000000	-0.000000	0.000000	-0.000000	0.000000
0.054167	-28.014766	473.491126	31.247563	0.785167	0.000000	-0.559129	0.000000	-1.092176	0.000000	0.000000	-0.000000	0.000000	0.000000	0.000000	-0.000000	0.000000	-0.000000	0.000000
0.055208	-28.037896	477.767430	31.484435	0.784437	0.000000	-0.559146	0.000000	-1.157715	0.000000	0.000000	-0.000000	0.000000	-0.000000	-0.000000	0.000000	0.000000	-0.000000	0.000000
0.056250	-28.016862	481.451150	31.675905	0.783685	0.000000	-0.559165	0.000000	-1.220564	0.000000	0.000000	-0.000000	0.000000	-0.000000	-0.000000	0.000000	0.000000	-0.000000	0.000000
0.057292	-27.956275	484.601368	31.825886	0.782910	0.000000	-0.559185	0.000000	-1.280466	0.000000	0.000000	-0.000000	0.000000	-0.000000	-0.000000	0.000000	0.000000	-0.000000	0.000000
0.058333	-27.860444	487.273284	31.938099	0.782115	0.000000	-0.559205	0.000000	-1.337225	0.000000	0.000000	-0.000000	0.000000	-0.000000	-0.000000	0.000000	0.000000	-0.000000	0.000000
0.059375	-27.733369	489.518122	32.016069	0.781299	0.000000	-0.559223	0.000000	-1.390711	0.000000	0.000000	-0.000000	0.000000	-0.000000	-0.000000	0.000000	0.000000	-0.000000	0.000000
0.060417	-27.578740	491.383124	32.063118	0.780464	0.000000	-0.559240	0.000000	-1.440852	0.000000	0.000000	-0.000000	0.000000	-0.000000	-0.000000	0.000000	0.000000	-0.000000	0.000000
0.061458	-27.399937	492.911629	32.082370	0.779610	0.000000	-0.559255	0.000000	-1.487629	0.000000	0.000000	-0.000000	0.000000	-0.000000	-0.000000	0.000000	0.000000	-0.000000	0.000000
0.062500	-27.200042	494.143196	32.076760	0.778738	0.000000	-0.559267	0.000000	-1.531073	0.000000	0.000000	-0.000000	0.000000	-0.000000	-0.000000	0.000000	0.000000	-0.000000	0.000000
0.063542	-26.981848	495.113775	32.049034	0.777851	0.000000	-0.559276	0.000000	-1.571260	0.000000	0.000000	-0.000000	0.000000	-0.000000	-0.000000	0.000000	0.000000	-0.000000	0.000000
0.064583	-26.747879	495.855904	32.001767	0.776949	0.000000	-0.559281	0.000000	-1.608302	0.000000	0.000000	-0.000000	0.000000	-0.000000	-0.000000	0.000000	0.000000	-0.000000	0.000000
0.065625	-26.500403	496.398916	31.937368	0.776034	0.000000	-0.559283	0.000000	-1.642346	0.000000	0.000000	-0.000000	0.000000	0.000000	0.000000	-0.000000	0.000000	-0.000000	0.000000
0.066667	-26.241450	496.769171	31.858095	0.775107	0.000000	-0.559282	0.000000	-1.673564	0.000000	0.000000	-0.000000	0.000000	0.000000	0.000000	-0.000000	0.000000	-0.000000	0.000000
0.067708	-25.972833	496.990273	31.766060	0.774171	0.000000	-0.559278	0.000000	-1.702150	0.000000	0.000000	-0.000000	0.000000	0.000000	0.000000	-0.000000	0.000000	-0.000000	0.000000
0.068750	-25.696166	497.083296	31.663242	0.773226	0.000000	-0.559271	0.000000	-1.728316	0.000000	0.000000	-0.000000	0.000000	0.000000	0.000000	-0.000000	0.000000	-0.000000	0.000000
0.069792	-25.412880	497.067002	31.551498	0.772275	0.000000	-0.559262	0.000000	-1.752283	0.000000	0.000000	-0.000000	0.000000	0.000000	0.000000	-0.000000	0.000000	-0.000000	0.000000
0.070833	-25.124242	496.958043	31.432568	0.771319	0.000000	-0.559250	0.000000	-1.774280	0.000000	0.000000	-0.000000	0.000000	0.000000	0.000000	-0.000000	0.000000	-0.000000	0.000000
0.071875	-24.831372	496.771164	31.308083	0.770361	0.000000	-0.559236	0.000000	-1.794537	0.000000	0.000000	-0.000000	0.000000	0.000000	0.000000	-0.000000	0.000000	-0.000000	0.000000
0.072917	-24.535258	496.519383	31.179573	0.769401	0.000000	-0.559222	0.000000	-1.813284	0.000000	0.000000	-0.000000	0.000000	0.000000	0.000000	-0.000000	0.000000	-0.000000	0.000000
0.073958	-24.236769	496.214166	31.048472	0.768442	0.000000	-0.559207	0.000000	-1.830746	0.000000	0.000000	-0.000000	0.000000	0.000000	0.000000	-0.000000	0.000000	-0.000000	0.000000
0.075000	-23.936670	495.865583	30.916122	0.767485	0.000000	-0.559192	0.000000	-1.847137	0.000000	0.000000	-0.000000	0.000000	0.000000	0.000000	-0.000000	0.000000	-0.000000	0.000000
0.076042	-23.635631	495.482456	30.783774	0.766531	0.000000	-0.559177	0.000000	-1.862663	0.000000	0.000000	-0.000000	0.000000	-0.000000	0.000000	-0.000000	0.000000	-0.000000	0.000000
0.077083	-23.334237	495.072493	30.652598	0.765581	0.000000	-0.559164	0.000000	-1.877516	0.000000	0.000000	-0.000000	0.000000	-0.000000	-0.000000	0.000000	0.000000	-0.000000	0.000000
0.078125	-23.032999	494.642409	30.523679	0.764638	0.000000	-0.559153	0.000000	-1.891874	0.000000	0.000000	-0.000000	0.000000	-0.000000	-0.000000	0.000000	0.000000	-0.000000	0.000000
